<svg width="36" height="36" viewBox="0 0 36 36" fill="none" xmlns="http://www.w3.org/2000/svg">
<path d="M31.8054 20.8806C31.2011 23.792 29.699 26.4478 27.5049 28.4841C25.3109 30.5203 22.5322 31.8374 19.5498 32.2547V29.3399C21.7526 28.9524 23.7963 27.9491 25.4381 26.4493C27.0798 24.9495 28.2507 23.0162 28.8115 20.8792L31.8054 20.8806ZM6.20283 20.8806C6.75756 22.9929 7.9085 24.9066 9.5219 26.3992C11.1353 27.8918 13.1449 28.9021 15.3172 29.3126V32.2346C12.3641 31.7906 9.61992 30.464 7.45483 28.4335C5.28973 26.4031 3.80783 23.7664 3.20896 20.8792H6.20283V20.8806ZM26.2612 16.561V19.4398H24.8022C23.3049 19.4398 21.8649 20.0075 20.78 21.0256C19.6951 22.0437 19.0483 23.4342 18.9735 24.9095L18.9662 25.1974V26.6368H16.0482V25.1974C16.0482 23.7202 15.4727 22.2995 14.4408 21.2292C13.4088 20.1589 11.9994 19.5208 10.504 19.447L10.2122 19.4398H8.75316V16.561H26.2612ZM17.5072 3.60645C25.0721 3.60645 31.2933 9.28773 32.0242 16.561H29.0887C28.7327 13.7785 27.3597 11.2198 25.2274 9.365C23.095 7.5102 20.35 6.48678 17.5072 6.48678C14.6644 6.48678 11.9193 7.5102 9.78697 9.365C7.65465 11.2198 6.28166 13.7785 5.92562 16.561H2.98865C3.72107 9.28773 9.94225 3.60645 17.5072 3.60645Z" fill="white"/>
</svg>
