<svg width="14" height="14" viewBox="0 0 14 14" fill="none" xmlns="http://www.w3.org/2000/svg">
<path d="M0.25 3.0625C0.25 2.31658 0.546316 1.60121 1.07376 1.07376C1.60121 0.546316 2.31658 0.25 3.0625 0.25H10.9375C11.6834 0.25 12.3988 0.546316 12.9262 1.07376C13.4537 1.60121 13.75 2.31658 13.75 3.0625V10.9375C13.75 11.6834 13.4537 12.3988 12.9262 12.9262C12.3988 13.4537 11.6834 13.75 10.9375 13.75H3.0625C2.31658 13.75 1.60121 13.4537 1.07376 12.9262C0.546316 12.3988 0.25 11.6834 0.25 10.9375V3.0625ZM3.0625 1.375C2.61495 1.375 2.18572 1.55279 1.86926 1.86926C1.55279 2.18572 1.375 2.61495 1.375 3.0625V10.9375C1.375 11.3851 1.55279 11.8143 1.86926 12.1307C2.18572 12.4472 2.61495 12.625 3.0625 12.625H10.9375C11.3851 12.625 11.8143 12.4472 12.1307 12.1307C12.4472 11.8143 12.625 11.3851 12.625 10.9375V3.0625C12.625 2.61495 12.4472 2.18572 12.1307 1.86926C11.8143 1.55279 11.3851 1.375 10.9375 1.375H3.0625ZM2.5 10.9375C2.5 10.7883 2.55926 10.6452 2.66475 10.5398C2.77024 10.4343 2.91332 10.375 3.0625 10.375H6.4375C6.58668 10.375 6.72976 10.4343 6.83525 10.5398C6.94074 10.6452 7 10.7883 7 10.9375C7 11.0867 6.94074 11.2298 6.83525 11.3352C6.72976 11.4407 6.58668 11.5 6.4375 11.5H3.0625C2.91332 11.5 2.77024 11.4407 2.66475 11.3352C2.55926 11.2298 2.5 11.0867 2.5 10.9375ZM3.0625 8.125C2.91332 8.125 2.77024 8.18426 2.66475 8.28975C2.55926 8.39524 2.5 8.53832 2.5 8.6875C2.5 8.83668 2.55926 8.97976 2.66475 9.08525C2.77024 9.19074 2.91332 9.25 3.0625 9.25H6.4375C6.58668 9.25 6.72976 9.19074 6.83525 9.08525C6.94074 8.97976 7 8.83668 7 8.6875C7 8.53832 6.94074 8.39524 6.83525 8.28975C6.72976 8.18426 6.58668 8.125 6.4375 8.125H3.0625ZM2.5 3.625C2.5 3.32663 2.61853 3.04048 2.8295 2.8295C3.04048 2.61853 3.32663 2.5 3.625 2.5H10.375C10.6734 2.5 10.9595 2.61853 11.1705 2.8295C11.3815 3.04048 11.5 3.32663 11.5 3.625V5.875C11.5 6.17337 11.3815 6.45952 11.1705 6.6705C10.9595 6.88147 10.6734 7 10.375 7H3.625C3.32663 7 3.04048 6.88147 2.8295 6.6705C2.61853 6.45952 2.5 6.17337 2.5 5.875V3.625ZM10.375 3.625H3.625V5.875H10.375V3.625ZM9.25 8.125C8.95163 8.125 8.66548 8.24353 8.4545 8.4545C8.24353 8.66548 8.125 8.95163 8.125 9.25V10.375C8.125 10.6734 8.24353 10.9595 8.4545 11.1705C8.66548 11.3815 8.95163 11.5 9.25 11.5H10.375C10.6734 11.5 10.9595 11.3815 11.1705 11.1705C11.3815 10.9595 11.5 10.6734 11.5 10.375V9.25C11.5 8.95163 11.3815 8.66548 11.1705 8.4545C10.9595 8.24353 10.6734 8.125 10.375 8.125H9.25ZM9.25 9.25H10.375V10.375H9.25V9.25Z" fill="white"/>
</svg>
